<?xml version="1.0" standalone="no"?><!DOCTYPE svg PUBLIC "-//W3C//DTD SVG 1.1//EN" "http://www.w3.org/Graphics/SVG/1.1/DTD/svg11.dtd"><svg t="1569876221358" class="icon" viewBox="0 0 1024 1024" version="1.1" xmlns="http://www.w3.org/2000/svg" p-id="1458" xmlns:xlink="http://www.w3.org/1999/xlink" width="128" height="128"><defs><style type="text/css"></style></defs><path d="M480 192H160a32 32 0 0 1 0-64h320a32 32 0 0 1 0 64z" fill="#4A8BFE" p-id="1459"></path><path d="M608 288H160a32 32 0 0 1 0-64h448a32 32 0 0 1 0 64z" fill="#3BD5B3" p-id="1460"></path><path d="M608 496H160a32 32 0 0 1 0-64h448a32 32 0 0 1 0 64z" fill="#4A8BFE" p-id="1461"></path><path d="M736 592H160a32 32 0 0 1 0-64h576a32 32 0 0 1 0 64zM864 896H160a32 32 0 0 1 0-64h704a32 32 0 0 1 0 64z" fill="#3BD5B3" p-id="1462"></path><path d="M736 800H160a32 32 0 0 1 0-64h576a32 32 0 0 1 0 64z" fill="#4A8BFE" p-id="1463"></path></svg>