<?xml version="1.0" standalone="no"?><!DOCTYPE svg PUBLIC "-//W3C//DTD SVG 1.1//EN" "http://www.w3.org/Graphics/SVG/1.1/DTD/svg11.dtd"><svg t="1569878877445" class="icon" viewBox="0 0 1024 1024" version="1.1" xmlns="http://www.w3.org/2000/svg" p-id="4241" xmlns:xlink="http://www.w3.org/1999/xlink" width="128" height="128"><defs><style type="text/css"></style></defs><path d="M526.912621 89.475728c-233.631068 0-422.524272 188.893204-422.524271 422.524272s188.893204 422.524272 422.524271 422.524272 422.524272-188.893204 422.524272-422.524272-188.893204-422.524272-422.524272-422.524272z m323.106796 422.524272c0 34.796117-4.970874 69.592233-14.912621 104.38835-154.097087-49.708738-243.572816-14.912621-293.281553 19.883495-59.650485 49.708738-84.504854 124.271845-84.504855 188.893204-49.708738-9.941748-99.417476-34.796117-139.184466-69.592233 154.097087-34.796117 233.631068-159.067961 258.485437-268.427185 4.970874-19.883495 4.970874-34.796117 9.941748-54.679612 69.592233-24.854369 134.213592-69.592233 188.893204-129.242718 44.737864 59.650485 74.563107 129.242718 74.563106 208.776699z m-109.359223-243.572816c-49.708738 54.679612-104.38835 89.475728-159.067961 114.330098-4.970874-74.563107-34.796117-144.15534-79.533981-193.864078h24.854369c79.533981 0 154.097087 29.825243 213.747573 79.53398zM442.407767 198.834951c59.650485 49.708738 89.475728 129.242718 89.475728 203.805826-104.38835 29.825243-208.776699 14.912621-298.252427-29.825243 39.76699-84.504854 119.300971-149.126214 208.776699-173.980583z m-238.601942 313.165049c0-29.825243 4.970874-64.621359 14.912622-89.475728 64.621359 29.825243 134.213592 44.737864 203.805825 44.737864 39.76699 0 74.563107-4.970874 109.359223-14.912621 0 9.941748 0 19.883495-4.970874 29.825242-19.883495 99.417476-99.417476 213.747573-248.543689 233.631068-49.708738-54.679612-74.563107-129.242718-74.563107-203.805825z m323.106796 323.106796h-24.854369c0-54.679612 19.883495-119.300971 69.592233-159.067961 54.679612-44.737864 139.184466-49.708738 243.572816-14.912621-54.679612 104.38835-164.038835 173.980583-288.31068 173.980582z" fill="#3d7ee6" p-id="4242"></path></svg>