<?xml version="1.0" standalone="no"?><!DOCTYPE svg PUBLIC "-//W3C//DTD SVG 1.1//EN" "http://www.w3.org/Graphics/SVG/1.1/DTD/svg11.dtd"><svg t="1569878370134" class="icon" viewBox="0 0 1024 1024" version="1.1" xmlns="http://www.w3.org/2000/svg" p-id="1307" xmlns:xlink="http://www.w3.org/1999/xlink" width="128" height="128"><defs><style type="text/css"></style></defs><path d="M791.7 213.5H687c0.5 2.9 0.7 5.9 0.7 8.9 0 29.7-24.2 53.9-53.9 53.9H417.2c-29.7 0-53.9-24.2-53.9-53.9 0-3 0.3-6 0.7-8.9H259.3c-24.7 0-44.7 19.9-44.7 44.4v621.9c0.1 24.6 20.1 44.4 44.7 44.3h532.3c24.7 0 44.7-19.9 44.7-44.4V258c0.1-24.7-19.9-44.5-44.6-44.5z m-288 310.9H369.6c-12 0-21.8-10.3-21.8-22.2v-0.3c0-12.1 9.7-21.9 21.8-21.9h134.1c12.1 0.2 21.8 10.1 21.8 22.2 0 12.3-9.5 22.2-21.8 22.2z m88.8 88.8c12.3 0 22.2 9.9 22.2 22.2s-9.9 22.2-22.2 22.2H369.7c-12 0-21.8-10.3-21.8-22.2 0-12.1 9.7-22 21.8-22.2h222.8z m88.4 177.7H370.1c-12.3 0-22.2-10.3-22.2-22.2 0-12.3 10.2-22.2 22.2-22.2H681c12.3 0 22.2 10.3 22.2 22.2-0.1 12.2-10.3 22.2-22.3 22.2z m0-399.7H370.1c-12.3 0-22.2-10.3-22.2-22.2 0-12.3 10.2-22.2 22.2-22.2H681c12.3 0 22.2 10.3 22.2 22.2-0.1 12.2-10.3 22.2-22.3 22.2z" fill="#3d7ee6" p-id="1308"></path><path d="M417.2 261.4h216.6c21.4 0 38.9-17.5 38.9-38.9s-17.5-38.9-38.9-38.9h-17.4c0.1-0.7 0.1-1.4 0.1-2 0-24.9-40.7-45-91-45s-91 20.1-91 45c0 0.7 0 1.4 0.1 2h-17.4c-21.4 0-38.9 17.5-38.9 38.9 0 21.3 17.5 38.9 38.9 38.9z" fill="#3d7ee6" p-id="1309"></path></svg>