<?xml version="1.0" standalone="no"?><!DOCTYPE svg PUBLIC "-//W3C//DTD SVG 1.1//EN" "http://www.w3.org/Graphics/SVG/1.1/DTD/svg11.dtd"><svg t="1587341869953" class="icon" viewBox="0 0 1024 1024" version="1.1" xmlns="http://www.w3.org/2000/svg" p-id="7818" xmlns:xlink="http://www.w3.org/1999/xlink" width="128" height="128"><defs><style type="text/css"></style></defs><path d="M465.454545 805.469091a346.298182 346.298182 0 0 0 193.163637-58.414546l-44.218182-44.450909a69.818182 69.818182 0 0 1 0-98.676363 69.818182 69.818182 0 0 1 98.676364 0l44.218181 44.218182A349.090909 349.090909 0 1 0 465.454545 805.469091z m0-558.545455a209.454545 209.454545 0 1 1-209.454545 209.454546 209.454545 209.454545 0 0 1 209.454545-209.454546z" fill="#73B4FF" p-id="7819"></path><path d="M658.850909 747.054545l149.410909 149.41091A69.818182 69.818182 0 0 0 907.636364 797.789091l-149.643637-149.643636a352.581818 352.581818 0 0 1-99.141818 98.90909z" fill="#87D3FF" p-id="7820"></path><path d="M614.4 605.090909a69.818182 69.818182 0 0 0 0 98.676364l44.450909 44.450909a352.581818 352.581818 0 0 0 98.443636-98.909091l-44.218181-44.218182a69.818182 69.818182 0 0 0-98.676364 0z" fill="#73B4FF" p-id="7821"></path><path d="M614.4 605.090909a69.818182 69.818182 0 0 0 0 98.676364l44.450909 44.450909a352.581818 352.581818 0 0 0 98.443636-98.909091l-44.218181-44.218182a69.818182 69.818182 0 0 0-98.676364 0z" fill="#1474E4" p-id="7822"></path></svg>

